<?xml version="1.0" encoding="UTF-8"?>
<svg xmlns="http://www.w3.org/2000/svg" xmlns:xlink="http://www.w3.org/1999/xlink" width="302.666667" height="98.666667" viewBox="0 0 302.666667 98.666667" version="1.1">
<defs>
<clipPath id="clip1">
  <path d="M 152 38.667969 L 158.332031 38.667969 L 158.332031 44.910156 L 152 44.910156 Z M 152 38.667969 "/>
</clipPath>
</defs>
<g id="surface1">
<path style="fill-rule:nonzero;fill:rgb(100%,100%,100%);fill-opacity:1;stroke-width:1;stroke-linecap:round;stroke-linejoin:round;stroke:rgb(0%,0%,0%);stroke-opacity:1;stroke-miterlimit:10;" d="M 53.999023 242.999023 L 71.999023 242.999023 L 71.999023 260.999023 L 53.999023 260.999023 Z M 53.999023 242.999023 " transform="matrix(1.333333,0,0,1.333333,-70.666667,-250.666667)"/>
<path style=" stroke:none;fill-rule:nonzero;fill:rgb(0%,0%,0%);fill-opacity:1;" d="M 12.0625 88.667969 L 12.0625 88.480469 C 11.167969 88.480469 10.917969 88.269531 10.917969 87.75 L 10.917969 80.582031 L 10.8125 80.5625 L 8.667969 81.644531 L 8.667969 81.8125 L 8.980469 81.6875 C 9.207031 81.605469 9.417969 81.542969 9.519531 81.542969 C 9.792969 81.542969 9.894531 81.730469 9.894531 82.144531 L 9.894531 87.519531 C 9.894531 88.1875 9.644531 88.4375 8.75 88.480469 L 8.75 88.667969 Z M 12.0625 88.667969 "/>
<path style=" stroke:none;fill-rule:nonzero;fill:rgb(0%,0%,0%);fill-opacity:1;" d="M 19.019531 87.019531 L 18.855469 86.957031 C 18.457031 87.625 18.207031 87.75 17.707031 87.75 L 14.894531 87.75 L 16.875 85.644531 C 17.9375 84.519531 18.417969 83.625 18.417969 82.667969 C 18.417969 81.480469 17.542969 80.5625 16.1875 80.5625 C 14.707031 80.5625 13.9375 81.542969 13.6875 82.9375 L 13.9375 83 C 14.417969 81.832031 14.855469 81.4375 15.707031 81.4375 C 16.730469 81.4375 17.375 82.042969 17.375 83.125 C 17.375 84.144531 16.9375 85.0625 15.8125 86.25 L 13.6875 88.519531 L 13.6875 88.667969 L 18.375 88.667969 Z M 19.019531 87.019531 "/>
<path style="fill-rule:nonzero;fill:rgb(100%,100%,100%);fill-opacity:1;stroke-width:1;stroke-linecap:round;stroke-linejoin:round;stroke:rgb(0%,0%,0%);stroke-opacity:1;stroke-miterlimit:10;" d="M 107.999023 242.999023 L 125.999023 242.999023 L 125.999023 260.999023 L 107.999023 260.999023 Z M 107.999023 242.999023 " transform="matrix(1.333333,0,0,1.333333,-70.666667,-250.666667)"/>
<path style=" stroke:none;fill-rule:nonzero;fill:rgb(0%,0%,0%);fill-opacity:1;" d="M 84.0625 88.667969 L 84.0625 88.480469 C 83.167969 88.480469 82.917969 88.269531 82.917969 87.75 L 82.917969 80.582031 L 82.8125 80.5625 L 80.667969 81.644531 L 80.667969 81.8125 L 80.980469 81.6875 C 81.207031 81.605469 81.417969 81.542969 81.519531 81.542969 C 81.792969 81.542969 81.894531 81.730469 81.894531 82.144531 L 81.894531 87.519531 C 81.894531 88.1875 81.644531 88.4375 80.75 88.480469 L 80.75 88.667969 Z M 84.0625 88.667969 "/>
<path style=" stroke:none;fill-rule:nonzero;fill:rgb(0%,0%,0%);fill-opacity:1;" d="M 90.582031 80.5 L 90.480469 80.417969 C 90.292969 80.667969 90.1875 80.730469 89.894531 80.730469 L 87.417969 80.730469 L 86.105469 83.5625 C 86.105469 83.5625 86.105469 83.605469 86.105469 83.625 C 86.105469 83.707031 86.144531 83.730469 86.25 83.730469 C 87.394531 83.730469 88.230469 84.105469 88.792969 84.5625 C 89.332031 85 89.605469 85.605469 89.605469 86.355469 C 89.605469 87.394531 88.832031 88.394531 87.980469 88.394531 C 87.75 88.394531 87.480469 88.292969 87.125 88 C 86.75 87.6875 86.519531 87.625 86.25 87.625 C 85.917969 87.625 85.707031 87.792969 85.707031 88.082031 C 85.707031 88.542969 86.332031 88.832031 87.230469 88.832031 C 88.042969 88.832031 88.707031 88.644531 89.269531 88.25 C 90.082031 87.644531 90.4375 86.894531 90.4375 85.75 C 90.4375 85.125 90.332031 84.667969 90.019531 84.230469 C 89.332031 83.269531 88.75 83.019531 87.019531 82.6875 L 87.5 81.667969 L 89.832031 81.667969 C 90.019531 81.667969 90.125 81.605469 90.167969 81.519531 Z M 90.582031 80.5 "/>
<path style="fill-rule:nonzero;fill:rgb(100%,100%,100%);fill-opacity:1;stroke-width:1;stroke-linecap:round;stroke-linejoin:round;stroke:rgb(0%,0%,0%);stroke-opacity:1;stroke-miterlimit:10;" d="M 71.999023 242.999023 L 89.999023 242.999023 L 89.999023 260.999023 L 71.999023 260.999023 Z M 71.999023 242.999023 " transform="matrix(1.333333,0,0,1.333333,-70.666667,-250.666667)"/>
<path style=" stroke:none;fill-rule:nonzero;fill:rgb(0%,0%,0%);fill-opacity:1;" d="M 36.0625 88.667969 L 36.0625 88.480469 C 35.167969 88.480469 34.917969 88.269531 34.917969 87.75 L 34.917969 80.582031 L 34.8125 80.5625 L 32.667969 81.644531 L 32.667969 81.8125 L 32.980469 81.6875 C 33.207031 81.605469 33.417969 81.542969 33.519531 81.542969 C 33.792969 81.542969 33.894531 81.730469 33.894531 82.144531 L 33.894531 87.519531 C 33.894531 88.1875 33.644531 88.4375 32.75 88.480469 L 32.75 88.667969 Z M 36.0625 88.667969 "/>
<path style=" stroke:none;fill-rule:nonzero;fill:rgb(0%,0%,0%);fill-opacity:1;" d="M 38.0625 82.542969 C 38.5625 81.667969 39.105469 81.269531 39.855469 81.269531 C 40.644531 81.269531 41.144531 81.6875 41.144531 82.5 C 41.144531 83.230469 40.769531 83.769531 40.1875 84.105469 C 39.9375 84.25 39.625 84.375 39.167969 84.542969 L 39.167969 84.707031 C 39.855469 84.707031 40.125 84.75 40.394531 84.832031 C 41.230469 85.0625 41.644531 85.644531 41.644531 86.5625 C 41.644531 87.582031 40.980469 88.394531 40.082031 88.394531 C 39.75 88.394531 39.5 88.332031 39.042969 88.019531 C 38.707031 87.792969 38.519531 87.707031 38.3125 87.707031 C 38.042969 87.707031 37.832031 87.894531 37.832031 88.144531 C 37.832031 88.582031 38.292969 88.832031 39.167969 88.832031 C 40.230469 88.832031 41.375 88.480469 41.957031 87.707031 C 42.292969 87.269531 42.5 86.667969 42.5 86.042969 C 42.5 85.417969 42.3125 84.855469 41.980469 84.5 C 41.730469 84.230469 41.5 84.082031 40.980469 83.855469 C 41.792969 83.375 42.105469 82.769531 42.105469 82.207031 C 42.105469 81.207031 41.332031 80.5625 40.230469 80.5625 C 38.980469 80.5625 38.230469 81.355469 37.875 82.5 Z M 38.0625 82.542969 "/>
<path style="fill-rule:nonzero;fill:rgb(100%,100%,100%);fill-opacity:1;stroke-width:1;stroke-linecap:round;stroke-linejoin:round;stroke:rgb(0%,0%,0%);stroke-opacity:1;stroke-miterlimit:10;" d="M 89.999023 242.999023 L 107.999023 242.999023 L 107.999023 260.999023 L 89.999023 260.999023 Z M 89.999023 242.999023 " transform="matrix(1.333333,0,0,1.333333,-70.666667,-250.666667)"/>
<path style=" stroke:none;fill-rule:nonzero;fill:rgb(0%,0%,0%);fill-opacity:1;" d="M 60.0625 88.667969 L 60.0625 88.480469 C 59.167969 88.480469 58.917969 88.269531 58.917969 87.75 L 58.917969 80.582031 L 58.8125 80.5625 L 56.667969 81.644531 L 56.667969 81.8125 L 56.980469 81.6875 C 57.207031 81.605469 57.417969 81.542969 57.519531 81.542969 C 57.792969 81.542969 57.894531 81.730469 57.894531 82.144531 L 57.894531 87.519531 C 57.894531 88.1875 57.644531 88.4375 56.75 88.480469 L 56.75 88.667969 Z M 60.0625 88.667969 "/>
<path style=" stroke:none;fill-rule:nonzero;fill:rgb(0%,0%,0%);fill-opacity:1;" d="M 67 86.667969 L 67 85.894531 L 65.769531 85.894531 L 65.769531 80.5625 L 65.25 80.5625 L 61.480469 85.894531 L 61.480469 86.667969 L 64.832031 86.667969 L 64.832031 88.667969 L 65.769531 88.667969 L 65.769531 86.667969 Z M 64.832031 85.894531 L 61.957031 85.894531 L 64.832031 81.769531 Z M 64.832031 85.894531 "/>
<path style="fill-rule:nonzero;fill:rgb(100%,100%,100%);fill-opacity:1;stroke-width:1;stroke-linecap:round;stroke-linejoin:round;stroke:rgb(0%,0%,0%);stroke-opacity:1;stroke-miterlimit:10;" d="M 107.999023 224.999023 L 125.999023 224.999023 L 125.999023 242.999023 L 107.999023 242.999023 Z M 107.999023 224.999023 " transform="matrix(1.333333,0,0,1.333333,-70.666667,-250.666667)"/>
<path style=" stroke:none;fill-rule:nonzero;fill:rgb(0%,0%,0%);fill-opacity:1;" d="M 84.0625 64.667969 L 84.0625 64.480469 C 83.167969 64.480469 82.917969 64.269531 82.917969 63.75 L 82.917969 56.582031 L 82.8125 56.5625 L 80.667969 57.644531 L 80.667969 57.8125 L 80.980469 57.6875 C 81.207031 57.605469 81.417969 57.542969 81.519531 57.542969 C 81.792969 57.542969 81.894531 57.730469 81.894531 58.144531 L 81.894531 63.519531 C 81.894531 64.1875 81.644531 64.4375 80.75 64.480469 L 80.75 64.667969 Z M 84.0625 64.667969 "/>
<path style=" stroke:none;fill-rule:nonzero;fill:rgb(0%,0%,0%);fill-opacity:1;" d="M 90.0625 64.667969 L 90.0625 64.480469 C 89.167969 64.480469 88.917969 64.269531 88.917969 63.75 L 88.917969 56.582031 L 88.8125 56.5625 L 86.667969 57.644531 L 86.667969 57.8125 L 86.980469 57.6875 C 87.207031 57.605469 87.417969 57.542969 87.519531 57.542969 C 87.792969 57.542969 87.894531 57.730469 87.894531 58.144531 L 87.894531 63.519531 C 87.894531 64.1875 87.644531 64.4375 86.75 64.480469 L 86.75 64.667969 Z M 90.0625 64.667969 "/>
<path style="fill-rule:nonzero;fill:rgb(100%,100%,100%);fill-opacity:1;stroke-width:1;stroke-linecap:round;stroke-linejoin:round;stroke:rgb(0%,0%,0%);stroke-opacity:1;stroke-miterlimit:10;" d="M 107.999023 188.999023 L 125.999023 188.999023 L 125.999023 206.999023 L 107.999023 206.999023 Z M 107.999023 188.999023 " transform="matrix(1.333333,0,0,1.333333,-70.666667,-250.666667)"/>
<path style=" stroke:none;fill-rule:nonzero;fill:rgb(0%,0%,0%);fill-opacity:1;" d="M 83.0625 10.542969 C 83.5625 9.667969 84.105469 9.269531 84.855469 9.269531 C 85.644531 9.269531 86.144531 9.6875 86.144531 10.5 C 86.144531 11.230469 85.769531 11.769531 85.1875 12.105469 C 84.9375 12.25 84.625 12.375 84.167969 12.542969 L 84.167969 12.707031 C 84.855469 12.707031 85.125 12.75 85.394531 12.832031 C 86.230469 13.0625 86.644531 13.644531 86.644531 14.5625 C 86.644531 15.582031 85.980469 16.394531 85.082031 16.394531 C 84.75 16.394531 84.5 16.332031 84.042969 16.019531 C 83.707031 15.792969 83.519531 15.707031 83.3125 15.707031 C 83.042969 15.707031 82.832031 15.894531 82.832031 16.144531 C 82.832031 16.582031 83.292969 16.832031 84.167969 16.832031 C 85.230469 16.832031 86.375 16.480469 86.957031 15.707031 C 87.292969 15.269531 87.5 14.667969 87.5 14.042969 C 87.5 13.417969 87.3125 12.855469 86.980469 12.5 C 86.730469 12.230469 86.5 12.082031 85.980469 11.855469 C 86.792969 11.375 87.105469 10.769531 87.105469 10.207031 C 87.105469 9.207031 86.332031 8.5625 85.230469 8.5625 C 83.980469 8.5625 83.230469 9.355469 82.875 10.5 Z M 83.0625 10.542969 "/>
<path style="fill-rule:nonzero;fill:rgb(100%,100%,100%);fill-opacity:1;stroke-width:1;stroke-linecap:round;stroke-linejoin:round;stroke:rgb(0%,0%,0%);stroke-opacity:1;stroke-miterlimit:10;" d="M 107.999023 206.999023 L 125.999023 206.999023 L 125.999023 224.999023 L 107.999023 224.999023 Z M 107.999023 206.999023 " transform="matrix(1.333333,0,0,1.333333,-70.666667,-250.666667)"/>
<path style=" stroke:none;fill-rule:nonzero;fill:rgb(0%,0%,0%);fill-opacity:1;" d="M 87.730469 32.917969 L 87.730469 32.730469 L 83.292969 32.730469 L 82.582031 34.480469 L 82.792969 34.605469 C 83.292969 33.769531 83.5 33.605469 84.1875 33.605469 L 86.769531 33.605469 L 84.394531 40.769531 L 85.1875 40.769531 Z M 87.730469 32.917969 "/>
<path style="fill-rule:nonzero;fill:rgb(69.803923%,85.09804%,100%);fill-opacity:1;stroke-width:1;stroke-linecap:round;stroke-linejoin:round;stroke:rgb(0%,0%,0%);stroke-opacity:1;stroke-miterlimit:10;" d="M 71.999023 224.999023 L 89.999023 224.999023 L 89.999023 242.999023 L 71.999023 242.999023 Z M 71.999023 224.999023 " transform="matrix(1.333333,0,0,1.333333,-70.666667,-250.666667)"/>
<path style=" stroke:none;fill-rule:nonzero;fill:rgb(0%,0%,0%);fill-opacity:1;" d="M 35.042969 64.9375 C 36.605469 64.707031 37.375 64.417969 38.394531 63.5 C 39.355469 62.625 39.832031 61.3125 39.832031 59.9375 C 39.832031 58.9375 39.5625 58.0625 39.082031 57.457031 C 38.605469 56.894531 37.957031 56.5625 37.1875 56.5625 C 35.769531 56.5625 34.6875 57.769531 34.6875 59.394531 C 34.6875 60.855469 35.5625 61.8125 36.855469 61.8125 C 37.5625 61.8125 38.144531 61.644531 38.644531 61.144531 C 38.167969 63.105469 36.832031 64.375 35 64.6875 Z M 38.6875 60.417969 C 38.6875 61.042969 37.792969 61.3125 37.269531 61.3125 C 36.375 61.3125 35.792969 60.417969 35.792969 58.980469 C 35.792969 58.332031 35.980469 57.625 36.207031 57.292969 C 36.417969 57.042969 36.730469 56.894531 37.082031 56.894531 C 38.144531 56.894531 38.6875 57.917969 38.6875 59.9375 Z M 38.6875 60.417969 "/>
<path style="fill-rule:nonzero;fill:rgb(40.000001%,74.901962%,100%);fill-opacity:1;stroke-width:1;stroke-linecap:round;stroke-linejoin:round;stroke:rgb(0%,0%,0%);stroke-opacity:1;stroke-miterlimit:10;" d="M 71.999023 188.999023 L 89.999023 188.999023 L 89.999023 206.999023 L 71.999023 206.999023 Z M 71.999023 188.999023 " transform="matrix(1.333333,0,0,1.333333,-70.666667,-250.666667)"/>
<path style=" stroke:none;fill-rule:nonzero;fill:rgb(0%,0%,0%);fill-opacity:1;" d="M 39.0625 16.667969 L 39.0625 16.480469 C 38.167969 16.480469 37.917969 16.269531 37.917969 15.75 L 37.917969 8.582031 L 37.8125 8.5625 L 35.667969 9.644531 L 35.667969 9.8125 L 35.980469 9.6875 C 36.207031 9.605469 36.417969 9.542969 36.519531 9.542969 C 36.792969 9.542969 36.894531 9.730469 36.894531 10.144531 L 36.894531 15.519531 C 36.894531 16.1875 36.644531 16.4375 35.75 16.480469 L 35.75 16.667969 Z M 39.0625 16.667969 "/>
<path style="fill-rule:nonzero;fill:rgb(40.000001%,74.901962%,100%);fill-opacity:1;stroke-width:1;stroke-linecap:round;stroke-linejoin:round;stroke:rgb(0%,0%,0%);stroke-opacity:1;stroke-miterlimit:10;" d="M 71.999023 206.999023 L 89.999023 206.999023 L 89.999023 224.999023 L 71.999023 224.999023 Z M 71.999023 206.999023 " transform="matrix(1.333333,0,0,1.333333,-70.666667,-250.666667)"/>
<path style=" stroke:none;fill-rule:nonzero;fill:rgb(0%,0%,0%);fill-opacity:1;" d="M 39.582031 32.5 L 39.480469 32.417969 C 39.292969 32.667969 39.1875 32.730469 38.894531 32.730469 L 36.417969 32.730469 L 35.105469 35.5625 C 35.105469 35.5625 35.105469 35.605469 35.105469 35.625 C 35.105469 35.707031 35.144531 35.730469 35.25 35.730469 C 36.394531 35.730469 37.230469 36.105469 37.792969 36.5625 C 38.332031 37 38.605469 37.605469 38.605469 38.355469 C 38.605469 39.394531 37.832031 40.394531 36.980469 40.394531 C 36.75 40.394531 36.480469 40.292969 36.125 40 C 35.75 39.6875 35.519531 39.625 35.25 39.625 C 34.917969 39.625 34.707031 39.792969 34.707031 40.082031 C 34.707031 40.542969 35.332031 40.832031 36.230469 40.832031 C 37.042969 40.832031 37.707031 40.644531 38.269531 40.25 C 39.082031 39.644531 39.4375 38.894531 39.4375 37.75 C 39.4375 37.125 39.332031 36.667969 39.019531 36.230469 C 38.332031 35.269531 37.75 35.019531 36.019531 34.6875 L 36.5 33.667969 L 38.832031 33.667969 C 39.019531 33.667969 39.125 33.605469 39.167969 33.519531 Z M 39.582031 32.5 "/>
<path style="fill-rule:nonzero;fill:rgb(69.803923%,85.09804%,100%);fill-opacity:1;stroke-width:1;stroke-linecap:round;stroke-linejoin:round;stroke:rgb(0%,0%,0%);stroke-opacity:1;stroke-miterlimit:10;" d="M 53.999023 224.999023 L 71.999023 224.999023 L 71.999023 242.999023 L 53.999023 242.999023 Z M 53.999023 224.999023 " transform="matrix(1.333333,0,0,1.333333,-70.666667,-250.666667)"/>
<path style=" stroke:none;fill-rule:nonzero;fill:rgb(0%,0%,0%);fill-opacity:1;" d="M 15.667969 62.8125 C 15.667969 61.855469 15.292969 61.207031 13.8125 60.207031 C 15 59.582031 15.417969 59.167969 15.417969 58.269531 C 15.417969 57.332031 14.582031 56.5625 13.394531 56.5625 C 12.082031 56.5625 11.082031 57.269531 11.082031 58.417969 C 11.082031 59.207031 11.332031 59.667969 12.5625 60.6875 C 11.292969 61.582031 11 62.042969 11 62.875 C 11 64 11.957031 64.832031 13.3125 64.832031 C 14.75 64.832031 15.667969 64.042969 15.667969 62.8125 Z M 14.582031 58.269531 C 14.582031 59.019531 14.292969 59.519531 13.457031 60 C 12.417969 59.375 11.957031 58.8125 11.957031 58.082031 C 11.957031 57.332031 12.480469 56.894531 13.292969 56.894531 C 14.105469 56.894531 14.582031 57.4375 14.582031 58.269531 Z M 13.582031 61.394531 C 14.394531 61.957031 14.769531 62.4375 14.769531 63.1875 C 14.769531 63.957031 14.230469 64.5 13.4375 64.5 C 12.519531 64.5 11.917969 63.875 11.917969 62.769531 C 11.917969 62 12.167969 61.5 12.875 60.917969 Z M 13.582031 61.394531 "/>
<path style="fill-rule:nonzero;fill:rgb(69.803923%,85.09804%,100%);fill-opacity:1;stroke-width:1;stroke-linecap:round;stroke-linejoin:round;stroke:rgb(0%,0%,0%);stroke-opacity:1;stroke-miterlimit:10;" d="M 89.999023 206.999023 L 107.999023 206.999023 L 107.999023 224.999023 L 89.999023 224.999023 Z M 89.999023 206.999023 " transform="matrix(1.333333,0,0,1.333333,-70.666667,-250.666667)"/>
<path style=" stroke:none;fill-rule:nonzero;fill:rgb(0%,0%,0%);fill-opacity:1;" d="M 63.6875 32.457031 C 62.019531 32.644531 61.082031 32.917969 60.042969 34 C 59.1875 34.875 58.75 36.019531 58.75 37.3125 C 58.75 38.167969 58.980469 39.019531 59.3125 39.625 C 59.730469 40.394531 60.480469 40.832031 61.4375 40.832031 C 62.230469 40.832031 62.894531 40.519531 63.332031 39.957031 C 63.730469 39.480469 63.957031 38.8125 63.957031 38.042969 C 63.957031 36.5 63.082031 35.519531 61.6875 35.519531 C 61.144531 35.519531 60.75 35.625 60.167969 36.0625 C 60.480469 34.25 61.832031 32.957031 63.707031 32.644531 Z M 62.875 38.417969 C 62.875 39.625 62.417969 40.5 61.5625 40.5 C 60.4375 40.5 59.855469 39.292969 59.855469 37.480469 C 59.855469 36.375 60.5625 36.082031 61.25 36.082031 C 62.375 36.082031 62.875 36.875 62.875 38.417969 Z M 62.875 38.417969 "/>
<path style="fill-rule:nonzero;fill:rgb(40.000001%,74.901962%,100%);fill-opacity:1;stroke-width:1;stroke-linecap:round;stroke-linejoin:round;stroke:rgb(0%,0%,0%);stroke-opacity:1;stroke-miterlimit:10;" d="M 53.999023 206.999023 L 71.999023 206.999023 L 71.999023 224.999023 L 53.999023 224.999023 Z M 53.999023 206.999023 " transform="matrix(1.333333,0,0,1.333333,-70.666667,-250.666667)"/>
<path style=" stroke:none;fill-rule:nonzero;fill:rgb(0%,0%,0%);fill-opacity:1;" d="M 16 38.667969 L 16 37.894531 L 14.769531 37.894531 L 14.769531 32.5625 L 14.25 32.5625 L 10.480469 37.894531 L 10.480469 38.667969 L 13.832031 38.667969 L 13.832031 40.667969 L 14.769531 40.667969 L 14.769531 38.667969 Z M 13.832031 37.894531 L 10.957031 37.894531 L 13.832031 33.769531 Z M 13.832031 37.894531 "/>
<path style="fill-rule:nonzero;fill:rgb(40.000001%,74.901962%,100%);fill-opacity:1;stroke-width:1;stroke-linecap:round;stroke-linejoin:round;stroke:rgb(0%,0%,0%);stroke-opacity:1;stroke-miterlimit:10;" d="M 89.999023 224.999023 L 107.999023 224.999023 L 107.999023 242.999023 L 89.999023 242.999023 Z M 89.999023 224.999023 " transform="matrix(1.333333,0,0,1.333333,-70.666667,-250.666667)"/>
<path style=" stroke:none;fill-rule:nonzero;fill:rgb(0%,0%,0%);fill-opacity:1;" d="M 60.0625 64.667969 L 60.0625 64.480469 C 59.167969 64.480469 58.917969 64.269531 58.917969 63.75 L 58.917969 56.582031 L 58.8125 56.5625 L 56.667969 57.644531 L 56.667969 57.8125 L 56.980469 57.6875 C 57.207031 57.605469 57.417969 57.542969 57.519531 57.542969 C 57.792969 57.542969 57.894531 57.730469 57.894531 58.144531 L 57.894531 63.519531 C 57.894531 64.1875 57.644531 64.4375 56.75 64.480469 L 56.75 64.667969 Z M 60.0625 64.667969 "/>
<path style=" stroke:none;fill-rule:nonzero;fill:rgb(0%,0%,0%);fill-opacity:1;" d="M 67.042969 60.707031 C 67.042969 58.25 65.957031 56.5625 64.375 56.5625 C 62.457031 56.5625 61.625 58.519531 61.625 60.625 C 61.625 62.605469 62.292969 64.832031 64.332031 64.832031 C 66.292969 64.832031 67.042969 62.769531 67.042969 60.707031 Z M 65.894531 60.769531 C 65.894531 63.144531 65.355469 64.519531 64.332031 64.519531 C 63.292969 64.519531 62.769531 63.144531 62.769531 60.707031 C 62.769531 58.292969 63.3125 56.875 64.3125 56.875 C 65.375 56.875 65.894531 58.269531 65.894531 60.769531 Z M 65.894531 60.769531 "/>
<path style="fill-rule:nonzero;fill:rgb(69.803923%,85.09804%,100%);fill-opacity:1;stroke-width:1;stroke-linecap:round;stroke-linejoin:round;stroke:rgb(0%,0%,0%);stroke-opacity:1;stroke-miterlimit:10;" d="M 89.999023 188.999023 L 107.999023 188.999023 L 107.999023 206.999023 L 89.999023 206.999023 Z M 89.999023 188.999023 " transform="matrix(1.333333,0,0,1.333333,-70.666667,-250.666667)"/>
<path style=" stroke:none;fill-rule:nonzero;fill:rgb(0%,0%,0%);fill-opacity:1;" d="M 64.019531 15.019531 L 63.855469 14.957031 C 63.457031 15.625 63.207031 15.75 62.707031 15.75 L 59.894531 15.75 L 61.875 13.644531 C 62.9375 12.519531 63.417969 11.625 63.417969 10.667969 C 63.417969 9.480469 62.542969 8.5625 61.1875 8.5625 C 59.707031 8.5625 58.9375 9.542969 58.6875 10.9375 L 58.9375 11 C 59.417969 9.832031 59.855469 9.4375 60.707031 9.4375 C 61.730469 9.4375 62.375 10.042969 62.375 11.125 C 62.375 12.144531 61.9375 13.0625 60.8125 14.25 L 58.6875 16.519531 L 58.6875 16.667969 L 63.375 16.667969 Z M 64.019531 15.019531 "/>
<path style="fill-rule:nonzero;fill:rgb(40.000001%,74.901962%,100%);fill-opacity:1;stroke-width:1;stroke-linecap:round;stroke-linejoin:round;stroke:rgb(0%,0%,0%);stroke-opacity:1;stroke-miterlimit:10;" d="M 53.999023 188.999023 L 71.999023 188.999023 L 71.999023 206.999023 L 53.999023 206.999023 Z M 53.999023 188.999023 " transform="matrix(1.333333,0,0,1.333333,-70.666667,-250.666667)"/>
<path style=" stroke:none;fill-rule:nonzero;fill:rgb(0%,0%,0%);fill-opacity:1;" d="M 16.042969 12.707031 C 16.042969 10.25 14.957031 8.5625 13.375 8.5625 C 11.457031 8.5625 10.625 10.519531 10.625 12.625 C 10.625 14.605469 11.292969 16.832031 13.332031 16.832031 C 15.292969 16.832031 16.042969 14.769531 16.042969 12.707031 Z M 14.894531 12.769531 C 14.894531 15.144531 14.355469 16.519531 13.332031 16.519531 C 12.292969 16.519531 11.769531 15.144531 11.769531 12.707031 C 11.769531 10.292969 12.3125 8.875 13.3125 8.875 C 14.375 8.875 14.894531 10.269531 14.894531 12.769531 Z M 14.894531 12.769531 "/>
<path style="fill:none;stroke-width:2;stroke-linecap:round;stroke-linejoin:round;stroke:rgb(0%,0%,0%);stroke-opacity:1;stroke-miterlimit:10;" d="M 53.999023 188.999023 L 107.999023 188.999023 L 107.999023 242.999023 L 53.999023 242.999023 Z M 53.999023 188.999023 " transform="matrix(1.333333,0,0,1.333333,-70.666667,-250.666667)"/>
<path style="fill-rule:nonzero;fill:rgb(40.000001%,74.901962%,100%);fill-opacity:1;stroke-width:1;stroke-linecap:round;stroke-linejoin:round;stroke:rgb(0%,0%,0%);stroke-opacity:1;stroke-miterlimit:10;" d="M 260.999023 224.999023 L 278.999023 224.999023 L 278.999023 242.999023 L 260.999023 242.999023 Z M 260.999023 224.999023 " transform="matrix(1.333333,0,0,1.333333,-70.666667,-250.666667)"/>
<path style=" stroke:none;fill-rule:nonzero;fill:rgb(0%,0%,0%);fill-opacity:1;" d="M 288.0625 64.667969 L 288.0625 64.480469 C 287.167969 64.480469 286.917969 64.269531 286.917969 63.75 L 286.917969 56.582031 L 286.8125 56.5625 L 284.667969 57.644531 L 284.667969 57.8125 L 284.980469 57.6875 C 285.207031 57.605469 285.417969 57.542969 285.519531 57.542969 C 285.792969 57.542969 285.894531 57.730469 285.894531 58.144531 L 285.894531 63.519531 C 285.894531 64.1875 285.644531 64.4375 284.75 64.480469 L 284.75 64.667969 Z M 288.0625 64.667969 "/>
<path style=" stroke:none;fill-rule:nonzero;fill:rgb(0%,0%,0%);fill-opacity:1;" d="M 295.042969 60.707031 C 295.042969 58.25 293.957031 56.5625 292.375 56.5625 C 290.457031 56.5625 289.625 58.519531 289.625 60.625 C 289.625 62.605469 290.292969 64.832031 292.332031 64.832031 C 294.292969 64.832031 295.042969 62.769531 295.042969 60.707031 Z M 293.894531 60.769531 C 293.894531 63.144531 293.355469 64.519531 292.332031 64.519531 C 291.292969 64.519531 290.769531 63.144531 290.769531 60.707031 C 290.769531 58.292969 291.3125 56.875 292.3125 56.875 C 293.375 56.875 293.894531 58.269531 293.894531 60.769531 Z M 293.894531 60.769531 "/>
<path style="fill-rule:nonzero;fill:rgb(69.803923%,85.09804%,100%);fill-opacity:1;stroke-width:1;stroke-linecap:round;stroke-linejoin:round;stroke:rgb(0%,0%,0%);stroke-opacity:1;stroke-miterlimit:10;" d="M 242.999023 224.999023 L 260.999023 224.999023 L 260.999023 242.999023 L 242.999023 242.999023 Z M 242.999023 224.999023 " transform="matrix(1.333333,0,0,1.333333,-70.666667,-250.666667)"/>
<path style=" stroke:none;fill-rule:nonzero;fill:rgb(0%,0%,0%);fill-opacity:1;" d="M 263.042969 64.9375 C 264.605469 64.707031 265.375 64.417969 266.394531 63.5 C 267.355469 62.625 267.832031 61.3125 267.832031 59.9375 C 267.832031 58.9375 267.5625 58.0625 267.082031 57.457031 C 266.605469 56.894531 265.957031 56.5625 265.1875 56.5625 C 263.769531 56.5625 262.6875 57.769531 262.6875 59.394531 C 262.6875 60.855469 263.5625 61.8125 264.855469 61.8125 C 265.5625 61.8125 266.144531 61.644531 266.644531 61.144531 C 266.167969 63.105469 264.832031 64.375 263 64.6875 Z M 266.6875 60.417969 C 266.6875 61.042969 265.792969 61.3125 265.269531 61.3125 C 264.375 61.3125 263.792969 60.417969 263.792969 58.980469 C 263.792969 58.332031 263.980469 57.625 264.207031 57.292969 C 264.417969 57.042969 264.730469 56.894531 265.082031 56.894531 C 266.144531 56.894531 266.6875 57.917969 266.6875 59.9375 Z M 266.6875 60.417969 "/>
<path style="fill-rule:nonzero;fill:rgb(69.803923%,85.09804%,100%);fill-opacity:1;stroke-width:1;stroke-linecap:round;stroke-linejoin:round;stroke:rgb(0%,0%,0%);stroke-opacity:1;stroke-miterlimit:10;" d="M 260.999023 206.999023 L 278.999023 206.999023 L 278.999023 224.999023 L 260.999023 224.999023 Z M 260.999023 206.999023 " transform="matrix(1.333333,0,0,1.333333,-70.666667,-250.666667)"/>
<path style=" stroke:none;fill-rule:nonzero;fill:rgb(0%,0%,0%);fill-opacity:1;" d="M 291.6875 32.457031 C 290.019531 32.644531 289.082031 32.917969 288.042969 34 C 287.1875 34.875 286.75 36.019531 286.75 37.3125 C 286.75 38.167969 286.980469 39.019531 287.3125 39.625 C 287.730469 40.394531 288.480469 40.832031 289.4375 40.832031 C 290.230469 40.832031 290.894531 40.519531 291.332031 39.957031 C 291.730469 39.480469 291.957031 38.8125 291.957031 38.042969 C 291.957031 36.5 291.082031 35.519531 289.6875 35.519531 C 289.144531 35.519531 288.75 35.625 288.167969 36.0625 C 288.480469 34.25 289.832031 32.957031 291.707031 32.644531 Z M 290.875 38.417969 C 290.875 39.625 290.417969 40.5 289.5625 40.5 C 288.4375 40.5 287.855469 39.292969 287.855469 37.480469 C 287.855469 36.375 288.5625 36.082031 289.25 36.082031 C 290.375 36.082031 290.875 36.875 290.875 38.417969 Z M 290.875 38.417969 "/>
<path style="fill-rule:nonzero;fill:rgb(40.000001%,74.901962%,100%);fill-opacity:1;stroke-width:1;stroke-linecap:round;stroke-linejoin:round;stroke:rgb(0%,0%,0%);stroke-opacity:1;stroke-miterlimit:10;" d="M 242.999023 206.999023 L 260.999023 206.999023 L 260.999023 224.999023 L 242.999023 224.999023 Z M 242.999023 206.999023 " transform="matrix(1.333333,0,0,1.333333,-70.666667,-250.666667)"/>
<path style=" stroke:none;fill-rule:nonzero;fill:rgb(0%,0%,0%);fill-opacity:1;" d="M 267.582031 32.5 L 267.480469 32.417969 C 267.292969 32.667969 267.1875 32.730469 266.894531 32.730469 L 264.417969 32.730469 L 263.105469 35.5625 C 263.105469 35.5625 263.105469 35.605469 263.105469 35.625 C 263.105469 35.707031 263.144531 35.730469 263.25 35.730469 C 264.394531 35.730469 265.230469 36.105469 265.792969 36.5625 C 266.332031 37 266.605469 37.605469 266.605469 38.355469 C 266.605469 39.394531 265.832031 40.394531 264.980469 40.394531 C 264.75 40.394531 264.480469 40.292969 264.125 40 C 263.75 39.6875 263.519531 39.625 263.25 39.625 C 262.917969 39.625 262.707031 39.792969 262.707031 40.082031 C 262.707031 40.542969 263.332031 40.832031 264.230469 40.832031 C 265.042969 40.832031 265.707031 40.644531 266.269531 40.25 C 267.082031 39.644531 267.4375 38.894531 267.4375 37.75 C 267.4375 37.125 267.332031 36.667969 267.019531 36.230469 C 266.332031 35.269531 265.75 35.019531 264.019531 34.6875 L 264.5 33.667969 L 266.832031 33.667969 C 267.019531 33.667969 267.125 33.605469 267.167969 33.519531 Z M 267.582031 32.5 "/>
<path style="fill:none;stroke-width:2;stroke-linecap:round;stroke-linejoin:round;stroke:rgb(0%,0%,0%);stroke-opacity:1;stroke-miterlimit:10;" d="M 242.999023 206.999023 L 278.999023 206.999023 L 278.999023 242.999023 L 242.999023 242.999023 Z M 242.999023 206.999023 " transform="matrix(1.333333,0,0,1.333333,-70.666667,-250.666667)"/>
<path style="fill-rule:nonzero;fill:rgb(100%,100%,100%);fill-opacity:1;stroke-width:1;stroke-linecap:round;stroke-linejoin:round;stroke:rgb(0%,0%,0%);stroke-opacity:1;stroke-miterlimit:10;" d="M 152.999023 211.80957 L 215.999023 211.80957 L 215.999023 238.80957 L 152.999023 238.80957 Z M 152.999023 211.80957 " transform="matrix(1.333333,0,0,1.333333,-70.666667,-250.666667)"/>
<path style=" stroke:none;fill-rule:nonzero;fill:rgb(0%,0%,0%);fill-opacity:1;" d="M 148.023438 43.429688 L 147.859375 43.367188 C 147.460938 44.035156 147.210938 44.160156 146.710938 44.160156 L 143.898438 44.160156 L 145.878906 42.054688 C 146.941406 40.929688 147.421875 40.035156 147.421875 39.078125 C 147.421875 37.890625 146.546875 36.972656 145.191406 36.972656 C 143.710938 36.972656 142.941406 37.953125 142.691406 39.347656 L 142.941406 39.410156 C 143.421875 38.242188 143.859375 37.847656 144.710938 37.847656 C 145.734375 37.847656 146.378906 38.453125 146.378906 39.535156 C 146.378906 40.554688 145.941406 41.472656 144.816406 42.660156 L 142.691406 44.929688 L 142.691406 45.078125 L 147.378906 45.078125 Z M 148.023438 43.429688 "/>
<g clip-path="url(#clip1)" clip-rule="nonzero">
<path style=" stroke:none;fill-rule:nonzero;fill:rgb(0%,0%,0%);fill-opacity:1;" d="M 155.484375 41.726562 L 157.859375 39.351562 C 157.984375 39.207031 158.023438 39.183594 158.023438 39.101562 C 158.023438 38.957031 157.898438 38.851562 157.773438 38.851562 C 157.691406 38.851562 157.628906 38.894531 157.523438 39.019531 L 155.128906 41.394531 L 152.734375 39.019531 C 152.609375 38.871094 152.566406 38.851562 152.484375 38.851562 C 152.359375 38.851562 152.234375 38.957031 152.234375 39.101562 C 152.234375 39.183594 152.296875 39.246094 152.398438 39.351562 L 154.773438 41.726562 L 152.398438 44.121094 C 152.273438 44.226562 152.234375 44.308594 152.234375 44.371094 C 152.234375 44.519531 152.359375 44.621094 152.484375 44.621094 C 152.566406 44.621094 152.609375 44.601562 152.734375 44.457031 L 155.128906 42.082031 L 157.523438 44.457031 C 157.628906 44.582031 157.710938 44.621094 157.773438 44.621094 C 157.921875 44.621094 158.023438 44.519531 158.023438 44.371094 C 158.023438 44.289062 157.984375 44.269531 157.859375 44.121094 Z M 155.484375 41.726562 "/>
<path style=" stroke:none;fill-rule:nonzero;fill:rgb(0%,0%,0%);fill-opacity:1;" d="M 155.484375 41.726562 L 157.859375 39.351562 C 157.984375 39.207031 158.023438 39.183594 158.023438 39.101562 C 158.023438 38.957031 157.898438 38.851562 157.773438 38.851562 C 157.691406 38.851562 157.628906 38.894531 157.523438 39.019531 L 155.128906 41.394531 L 152.734375 39.019531 C 152.609375 38.871094 152.566406 38.851562 152.484375 38.851562 C 152.359375 38.851562 152.234375 38.957031 152.234375 39.101562 C 152.234375 39.183594 152.296875 39.246094 152.398438 39.351562 L 154.773438 41.726562 L 152.398438 44.121094 C 152.273438 44.226562 152.234375 44.308594 152.234375 44.371094 C 152.234375 44.519531 152.359375 44.621094 152.484375 44.621094 C 152.566406 44.621094 152.609375 44.601562 152.734375 44.457031 L 155.128906 42.082031 L 157.523438 44.457031 C 157.628906 44.582031 157.710938 44.621094 157.773438 44.621094 C 157.921875 44.621094 158.023438 44.519531 158.023438 44.371094 C 158.023438 44.289062 157.984375 44.269531 157.859375 44.121094 Z M 155.484375 41.726562 "/>
</g>
<path style=" stroke:none;fill-rule:nonzero;fill:rgb(0%,0%,0%);fill-opacity:1;" d="M 168.019531 43.429688 L 167.855469 43.367188 C 167.457031 44.035156 167.207031 44.160156 166.707031 44.160156 L 163.894531 44.160156 L 165.875 42.054688 C 166.9375 40.929688 167.417969 40.035156 167.417969 39.078125 C 167.417969 37.890625 166.542969 36.972656 165.1875 36.972656 C 163.707031 36.972656 162.9375 37.953125 162.6875 39.347656 L 162.9375 39.410156 C 163.417969 38.242188 163.855469 37.847656 164.707031 37.847656 C 165.730469 37.847656 166.375 38.453125 166.375 39.535156 C 166.375 40.554688 165.9375 41.472656 164.8125 42.660156 L 162.6875 44.929688 L 162.6875 45.078125 L 167.375 45.078125 Z M 168.019531 43.429688 "/>
<path style=" stroke:none;fill-rule:nonzero;fill:rgb(0%,0%,0%);fill-opacity:1;" d="M 172.890625 40.703125 L 172.890625 41.535156 L 183.765625 41.535156 L 183.765625 40.703125 L 180.515625 40.703125 C 181.265625 39.367188 181.996094 37.703125 182.683594 35.640625 L 181.828125 35.328125 C 181.226562 37.285156 180.496094 39.054688 179.601562 40.703125 Z M 174.476562 36.035156 L 173.664062 36.410156 C 174.265625 37.453125 174.808594 38.640625 175.351562 39.953125 L 176.164062 39.535156 C 175.621094 38.265625 175.058594 37.097656 174.476562 36.035156 Z M 177.371094 35.328125 L 176.558594 35.722656 C 177.164062 36.828125 177.703125 38.078125 178.226562 39.453125 L 179.015625 39.054688 C 178.515625 37.703125 177.976562 36.453125 177.371094 35.328125 Z M 176.183594 42.203125 C 175.390625 43.535156 174.433594 44.703125 173.308594 45.660156 L 174.015625 46.160156 C 175.140625 45.140625 176.140625 43.953125 176.953125 42.578125 Z M 180.539062 42.140625 L 179.808594 42.597656 C 180.976562 43.910156 181.871094 45.078125 182.558594 46.140625 L 183.328125 45.597656 C 182.683594 44.617188 181.746094 43.472656 180.539062 42.140625 Z M 180.539062 42.140625 "/>
<path style=" stroke:none;fill-rule:nonzero;fill:rgb(0%,0%,0%);fill-opacity:1;" d="M 192.851562 42.015625 L 192.289062 42.265625 L 192.289062 36.492188 L 192.828125 36.492188 L 192.828125 35.722656 L 188.851562 35.722656 L 188.851562 36.492188 L 189.496094 36.492188 L 189.496094 43.203125 C 189.203125 43.265625 188.914062 43.328125 188.621094 43.390625 L 188.789062 44.117188 C 189.726562 43.890625 190.640625 43.617188 191.515625 43.304688 L 191.515625 44.929688 L 192.289062 44.929688 L 192.289062 43.015625 C 192.476562 42.929688 192.664062 42.867188 192.851562 42.785156 Z M 191.515625 42.578125 C 191.101562 42.722656 190.683594 42.847656 190.265625 42.992188 L 190.265625 41.054688 L 191.515625 41.054688 Z M 190.265625 40.347656 L 190.265625 38.828125 L 191.515625 38.828125 L 191.515625 40.347656 Z M 190.265625 38.117188 L 190.265625 36.492188 L 191.515625 36.492188 L 191.515625 38.117188 Z M 185.246094 36.890625 L 185.246094 37.679688 L 186.664062 37.679688 L 186.664062 39.429688 L 185.078125 39.429688 L 185.078125 40.222656 L 186.996094 40.222656 L 186.996094 44.285156 C 186.664062 43.972656 186.371094 43.578125 186.101562 43.078125 C 186.164062 42.429688 186.203125 41.785156 186.246094 41.078125 L 185.515625 40.992188 C 185.476562 42.765625 185.203125 44.367188 184.746094 45.804688 L 185.371094 46.347656 C 185.601562 45.660156 185.808594 44.890625 185.953125 44.078125 C 186.433594 44.828125 186.996094 45.347656 187.621094 45.640625 C 188.351562 45.972656 190.183594 46.140625 193.078125 46.140625 L 195.578125 46.140625 L 195.726562 45.304688 C 195.101562 45.328125 194.164062 45.347656 192.890625 45.347656 C 190.390625 45.347656 188.808594 45.222656 188.101562 44.992188 C 188.015625 44.953125 187.914062 44.910156 187.789062 44.867188 L 187.789062 42.640625 L 188.996094 42.640625 L 188.996094 41.890625 L 187.789062 41.890625 L 187.789062 40.222656 L 189.039062 40.222656 L 189.039062 39.429688 L 187.476562 39.429688 L 187.476562 37.679688 L 188.808594 37.679688 L 188.808594 36.890625 L 187.476562 36.890625 L 187.476562 35.265625 L 186.664062 35.265625 L 186.664062 36.890625 Z M 192.765625 36.597656 L 192.765625 37.347656 L 194.828125 37.347656 C 194.765625 38.453125 194.578125 39.472656 194.328125 40.410156 C 194.015625 39.679688 193.683594 38.992188 193.308594 38.304688 L 192.640625 38.535156 C 193.101562 39.429688 193.539062 40.390625 193.976562 41.410156 C 193.578125 42.429688 193.039062 43.304688 192.328125 44.054688 L 192.828125 44.640625 C 193.433594 43.992188 193.953125 43.242188 194.371094 42.410156 C 194.640625 43.078125 194.890625 43.804688 195.140625 44.554688 L 195.789062 44.242188 C 195.476562 43.304688 195.140625 42.390625 194.789062 41.472656 C 195.246094 40.222656 195.515625 38.804688 195.578125 37.179688 L 195.578125 36.597656 Z M 192.765625 36.597656 "/>
<path style=" stroke:none;fill-rule:nonzero;fill:rgb(0%,0%,0%);fill-opacity:1;" d="M 200.289062 37.703125 L 199.664062 38.304688 C 200.808594 39.179688 201.851562 40.035156 202.789062 40.867188 C 201.808594 41.929688 200.640625 42.742188 199.308594 43.304688 L 199.808594 44.078125 C 201.183594 43.472656 202.390625 42.617188 203.453125 41.492188 C 204.390625 42.347656 205.203125 43.203125 205.914062 44.035156 L 206.578125 43.367188 C 205.828125 42.535156 204.976562 41.679688 204.039062 40.828125 C 204.746094 39.910156 205.371094 38.828125 205.914062 37.617188 L 205.140625 37.203125 C 204.640625 38.328125 204.039062 39.347656 203.371094 40.222656 C 202.414062 39.367188 201.371094 38.535156 200.289062 37.703125 Z M 197.746094 35.765625 L 197.746094 45.765625 L 207.621094 45.765625 L 207.621094 44.953125 L 198.578125 44.953125 L 198.578125 36.597656 L 207.265625 36.597656 L 207.265625 35.765625 Z M 197.746094 35.765625 "/>
<path style=" stroke:none;fill-rule:nonzero;fill:rgb(0%,0%,0%);fill-opacity:1;" d="M 155.167969 55.578125 L 155.167969 56.390625 L 159.4375 56.390625 C 159.480469 58.242188 159.5625 59.765625 159.730469 60.972656 C 159.769531 61.347656 159.8125 61.703125 159.894531 62.035156 C 159.269531 62.992188 158.5 63.722656 157.605469 64.242188 L 158.144531 64.910156 C 158.875 64.472656 159.5625 63.847656 160.144531 63.078125 C 160.230469 63.390625 160.355469 63.679688 160.480469 63.929688 C 160.792969 64.554688 161.144531 64.867188 161.542969 64.867188 C 162.0625 64.867188 162.5 64.160156 162.894531 62.703125 L 162.25 62.179688 C 162 63.367188 161.769531 63.972656 161.542969 63.992188 C 161.230469 63.953125 160.957031 63.367188 160.707031 62.222656 C 161.417969 61.015625 161.980469 59.515625 162.375 57.703125 L 161.625 57.390625 C 161.375 58.742188 161 59.910156 160.519531 60.910156 C 160.394531 59.742188 160.3125 58.242188 160.269531 56.390625 L 162.792969 56.390625 L 162.792969 55.578125 L 162.207031 55.578125 C 162.042969 55.054688 161.894531 54.597656 161.730469 54.203125 L 160.957031 54.328125 C 161.144531 54.703125 161.3125 55.117188 161.480469 55.578125 L 160.269531 55.578125 C 160.25 55.054688 160.25 54.515625 160.25 53.953125 L 159.417969 53.953125 C 159.417969 54.492188 159.417969 55.035156 159.417969 55.578125 Z M 155.644531 57.578125 L 155.644531 60.953125 L 158.707031 60.953125 L 158.707031 57.578125 Z M 157.9375 60.242188 L 156.417969 60.242188 L 156.417969 58.285156 L 157.9375 58.285156 Z M 158.8125 61.703125 C 157.519531 62.203125 156.1875 62.578125 154.792969 62.804688 L 155 63.640625 C 156.355469 63.328125 157.625 62.929688 158.8125 62.492188 Z M 152 57.140625 L 152 57.972656 L 153.167969 57.972656 L 153.167969 61.910156 C 152.75 62.054688 152.3125 62.179688 151.875 62.285156 L 152.105469 63.160156 C 153.1875 62.828125 154.207031 62.410156 155.144531 61.910156 L 155.144531 61.035156 C 154.792969 61.242188 154.394531 61.429688 154.019531 61.597656 L 154.019531 57.972656 L 155.167969 57.972656 L 155.167969 57.140625 L 154.019531 57.140625 L 154.019531 53.972656 L 153.167969 53.972656 L 153.167969 57.140625 Z M 152 57.140625 "/>
<path style=" stroke:none;fill-rule:nonzero;fill:rgb(0%,0%,0%);fill-opacity:1;" d="M 172.917969 64.660156 C 173.5625 64.660156 174.019531 64.515625 174.269531 64.265625 C 174.5 63.992188 174.667969 63.222656 174.75 61.972656 L 173.9375 61.722656 C 173.894531 62.765625 173.792969 63.390625 173.625 63.554688 C 173.4375 63.722656 173.144531 63.828125 172.75 63.828125 L 169.457031 63.828125 C 169 63.828125 168.792969 63.597656 168.792969 63.140625 L 168.792969 58.390625 L 170.542969 57.804688 L 170.542969 62.285156 L 171.375 62.285156 L 171.375 57.515625 L 173.207031 56.910156 C 173.1875 58.660156 173.167969 59.679688 173.125 59.972656 C 173.0625 60.242188 172.917969 60.390625 172.667969 60.390625 C 172.480469 60.390625 172.269531 60.390625 172 60.390625 L 172.25 61.203125 L 172.519531 61.203125 C 173.3125 61.203125 173.769531 60.929688 173.875 60.390625 C 173.980469 59.847656 174.042969 58.285156 174.042969 55.742188 L 171.375 56.640625 L 171.375 53.929688 L 170.542969 53.929688 L 170.542969 56.929688 L 168.792969 57.515625 L 168.792969 54.992188 L 167.917969 54.992188 L 167.917969 57.804688 L 166.917969 58.140625 L 166.917969 59.015625 L 167.917969 58.679688 L 167.917969 63.285156 C 167.917969 64.179688 168.355469 64.660156 169.269531 64.660156 Z M 164.75 54.179688 L 164.144531 54.785156 C 165.019531 55.410156 165.730469 56.015625 166.25 56.597656 L 166.855469 55.972656 C 166.292969 55.367188 165.582031 54.785156 164.75 54.179688 Z M 164.542969 57.117188 L 163.9375 57.722656 C 164.769531 58.347656 165.417969 58.929688 165.875 59.492188 L 166.480469 58.867188 C 165.957031 58.285156 165.3125 57.703125 164.542969 57.117188 Z M 165.832031 60.347656 C 165.332031 61.785156 164.707031 63.160156 164.019531 64.535156 L 164.875 64.910156 C 165.519531 63.597656 166.105469 62.179688 166.605469 60.660156 Z M 165.832031 60.347656 "/>
<path style=" stroke:none;fill-rule:nonzero;fill:rgb(0%,0%,0%);fill-opacity:1;" d="M 179.5 53.847656 C 178.730469 55.742188 177.5 57.429688 175.792969 58.890625 L 176.0625 59.785156 C 176.707031 59.265625 177.292969 58.703125 177.832031 58.117188 L 177.832031 64.972656 L 178.6875 64.972656 L 178.6875 57.054688 C 179.332031 56.179688 179.875 55.242188 180.292969 54.222656 Z M 185.019531 64.742188 C 185.605469 64.742188 186 64.597656 186.207031 64.328125 C 186.417969 64.035156 186.5625 63.203125 186.644531 61.804688 L 185.855469 61.554688 C 185.792969 62.742188 185.707031 63.429688 185.582031 63.617188 C 185.4375 63.804688 185.1875 63.929688 184.875 63.929688 L 182.9375 63.929688 C 182.542969 63.929688 182.332031 63.722656 182.332031 63.367188 L 182.332031 59.304688 C 183.832031 58.367188 185.144531 57.304688 186.25 56.097656 L 185.644531 55.410156 C 184.707031 56.492188 183.605469 57.453125 182.332031 58.285156 L 182.332031 53.992188 L 181.480469 53.992188 L 181.480469 58.804688 C 180.875 59.179688 180.207031 59.492188 179.542969 59.804688 L 179.9375 60.617188 C 180.457031 60.367188 180.980469 60.097656 181.480469 59.828125 L 181.480469 63.472656 C 181.480469 64.328125 181.894531 64.742188 182.730469 64.742188 Z M 185.019531 64.742188 "/>
<path style=" stroke:none;fill-rule:nonzero;fill:rgb(0%,0%,0%);fill-opacity:1;" d="M 191.230469 58.535156 L 191.230469 59.304688 L 197.730469 59.304688 L 197.730469 58.535156 Z M 190.375 60.492188 L 190.375 61.285156 L 193 61.285156 C 192.167969 62.640625 191.457031 63.472656 190.9375 63.785156 C 190.875 63.804688 190.832031 63.847656 190.75 63.867188 L 190.9375 64.597656 C 193.207031 64.453125 195.292969 64.242188 197.1875 63.992188 C 197.4375 64.285156 197.644531 64.597656 197.855469 64.910156 L 198.542969 64.429688 C 198.019531 63.660156 197.25 62.742188 196.269531 61.703125 L 195.625 62.097656 C 195.980469 62.515625 196.332031 62.910156 196.667969 63.304688 C 195.125 63.535156 193.5625 63.703125 191.980469 63.804688 C 192.542969 63.304688 193.1875 62.453125 193.917969 61.285156 L 198.519531 61.285156 L 198.519531 60.492188 Z M 197.0625 55.222656 L 197.0625 56.617188 L 190 56.617188 L 190 55.222656 Z M 190 57.390625 L 197.894531 57.390625 L 197.894531 54.410156 L 189.167969 54.410156 L 189.167969 58.390625 C 189.144531 60.804688 188.730469 62.765625 187.894531 64.285156 L 188.519531 64.867188 C 189.5 63.054688 190 60.890625 190 58.390625 Z M 190 57.390625 "/>
</g>
</svg>
